# xmcd
#
# Track frame offsets: 
#        150
#        16495
#        28087
#        45777
#        59185
#        71285
#        110520
#        131735
#        151972
#        170437
#        183142
#        214272
#
# Disc length: 3144 seconds
#
# Revision: 2
# Processed by: cddbd v1.5.2PL0 Copyright (c) Steve Scherf et al.
# Submitted via: ExactAudioCopy v0.95b4
#
DISCID=a20c460c
DTITLE=Chet Baker - Love Songs
DYEAR=2004
DGENRE=Jazz
TTITLE0=I Married an Angel
TTITLE1=Love
TTITLE2=What'll I Do
TTITLE3=Love WalkedIin
TTITLE4=What a Diff'rence a Day Made
TTITLE5=My Funny Valentine (live)
TTITLE6=She was Too Good to Me
TTITLE7=It's You or No One
TTITLE8=With a Song in My Heart
TTITLE9=I Love You
TTITLE10=There Will Never Be Another You (live)
TTITLE11=My Future Just Passed
EXTD=YEAR: 2004
EXTT0=
EXTT1=
EXTT2=
EXTT3=
EXTT4=
EXTT5=
EXTT6=
EXTT7=
EXTT8=
EXTT9=
EXTT10=
EXTT11=
PLAYORDER=
